<svg width="38" height="38" viewBox="0 0 38 38" fill="none" xmlns="http://www.w3.org/2000/svg">
<path fill-rule="evenodd" clip-rule="evenodd" d="M37.9637 20.1843C37.9878 19.7926 38 19.3977 38 19C38 8.50659 29.4934 0 19 0C8.50659 0 0 8.50659 0 19C0 29.4934 8.50659 38 19 38C22.0599 38 24.9508 37.2767 27.5111 35.9917C24.936 34.1962 22.7751 31.9665 21.0384 29.5866C18.699 26.3811 17.0979 22.8696 16.2536 19.6959C15.4275 16.5911 15.261 13.5586 16.1073 11.4429L17.0202 9.16071L18.6323 11.0162C21.9161 14.7956 24.7104 17.6152 27.0883 19.6108C29.4818 21.6195 31.3706 22.7222 32.8409 23.1761C34.2543 23.6125 35.1971 23.4318 35.9198 22.9604C36.6385 22.4917 37.3331 21.6099 37.9637 20.1843ZM36.6921 25.9414C35.3833 29.2746 33.1598 32.1482 30.3307 34.2532C27.5688 32.5721 25.2777 30.3065 23.4617 27.8181C21.3427 24.9145 19.9021 21.7415 19.1527 18.9246C18.8081 17.6293 18.6224 16.4593 18.5663 15.4529C21.0042 18.1188 23.1919 20.2573 25.1598 21.9088C27.6862 24.029 29.9341 25.4184 31.956 26.0426C33.6746 26.5732 35.2744 26.559 36.6921 25.9414Z" fill="#1850A7"/>
</svg>
